<svg width="296" height="234" viewBox="0 0 296 234" fill="none" xmlns="http://www.w3.org/2000/svg">
<path d="M274.498 187.566H34.0528C34.0528 187.566 8.66362 160.263 34.0528 146.71C34.0528 146.71 54.2247 145.141 51.9887 119.322C51.9887 119.322 43.961 73.8538 103.335 81.5123C103.335 81.5123 128.816 88.3655 148.632 70.6636C148.632 70.6636 206.115 7.54883 232.783 83.7361C233.698 86.3523 235.124 88.7591 236.979 90.8156C238.833 92.8721 241.079 94.5368 243.584 95.7122C259.431 103.141 291.839 126.36 274.498 187.566Z" fill="#F4717F"/>
<path opacity="0.7" d="M274.498 187.566H34.0528C34.0528 187.566 8.66362 160.263 34.0528 146.71C34.0528 146.71 54.2247 145.141 51.9887 119.322C51.9887 119.322 43.961 73.8538 103.335 81.5123C103.335 81.5123 128.816 88.3655 148.632 70.6636C148.632 70.6636 206.115 7.54883 232.783 83.7361C233.698 86.3523 235.124 88.7591 236.979 90.8156C238.833 92.8721 241.079 94.5368 243.584 95.7122C259.431 103.141 291.839 126.36 274.498 187.566Z" fill="white"/>
<path d="M151.043 90.9937H162.428L130.881 184.218H119.51L151.043 90.9937Z" fill="#E6E7E8"/>
<path d="M36.1111 166.352L56.5941 143.503C56.5941 143.503 60.4096 138.531 66.5774 138.826L49.1784 166.924L36.1111 166.352Z" fill="#2F2E41"/>
<path opacity="0.2" d="M36.1111 166.352L56.5941 143.503C56.5941 143.503 60.4096 138.531 66.5774 138.826L49.1784 166.924L36.1111 166.352Z" fill="black"/>
<path d="M31.998 170.57L31.0099 171.978C31.0099 171.978 31.7382 171.769 33.3554 173.023C33.3554 173.023 34.6546 174.171 39.1368 173.023L42.3643 172.122L43.1062 170.728L31.998 170.57Z" fill="#F9B499"/>
<path d="M42.737 173.198L41.3352 175.302C41.3352 175.302 40.2001 174.617 38.8257 176.207C38.2285 176.841 37.516 177.355 36.7265 177.721C36.7265 177.721 31.598 180.027 26.4696 180.966C26.4696 180.966 24.3601 180.569 23.3925 182.107C23.1071 182.595 22.9495 183.146 22.9344 183.711C22.9344 183.711 13.7511 183.804 13.1972 182.142C12.989 181.494 12.9386 180.805 13.0502 180.134C13.2656 179.034 14.1066 177.886 16.6777 177.834C17.1692 177.822 17.6578 177.754 18.1342 177.632C20.8373 176.984 23.4922 176.148 26.0798 175.131C27.3349 174.595 28.4793 173.829 29.4543 172.873C29.8752 172.428 30.4175 172.118 31.0134 171.982C31.0134 171.982 32.0869 171.797 33.3554 173.01C33.3554 173.01 34.5212 174.055 38.8975 173.065L39.1403 173.01C41.1404 172.451 41.9848 172.225 42.3678 172.108C42.273 172.302 42.2587 172.526 42.3279 172.73C42.3971 172.934 42.5442 173.102 42.737 173.198Z" fill="#F4717F"/>
<path opacity="0.2" d="M42.737 173.198L41.3352 175.302C41.3352 175.302 40.2001 174.617 38.8257 176.207C38.2285 176.841 37.516 177.355 36.7265 177.721C36.7265 177.721 31.598 180.027 26.4696 180.966C26.4696 180.966 24.3601 180.569 23.3925 182.107C23.1071 182.595 22.9495 183.146 22.9344 183.711C22.9344 183.711 13.7511 183.804 13.1972 182.142C12.989 181.494 12.9386 180.805 13.0502 180.134C13.2656 179.034 14.1066 177.886 16.6777 177.834C17.1692 177.822 17.6578 177.754 18.1342 177.632C20.8373 176.984 23.4922 176.148 26.0798 175.131C27.3349 174.595 28.4793 173.829 29.4543 172.873C29.8752 172.428 30.4175 172.118 31.0134 171.982C31.0134 171.982 32.0869 171.797 33.3554 173.01C33.3554 173.01 34.5212 174.055 38.8975 173.065L39.1403 173.01C41.1404 172.451 41.9848 172.225 42.3678 172.108C42.273 172.302 42.2587 172.526 42.3279 172.73C42.3971 172.934 42.5442 173.102 42.737 173.198Z" fill="black"/>
<path d="M49.9168 166.934L34.1896 166.249C34.1896 166.249 32.5383 166.006 32.0733 167.486L30.8322 169.82C30.8322 169.82 30.2099 170.985 32.0733 171.063L48.5493 171.54C48.5493 171.54 49.869 171.851 50.4126 170.762L51.8862 168.911C51.8862 168.911 52.7067 166.616 49.9168 166.934Z" fill="#F4717F"/>
<path opacity="0.2" d="M49.9168 166.934L34.1896 166.249C34.1896 166.249 32.5383 166.006 32.0733 167.486L30.8322 169.82C30.8322 169.82 30.2099 170.985 32.0733 171.063L48.5493 171.54C48.5493 171.54 49.869 171.851 50.4126 170.762L51.8862 168.911C51.8862 168.911 52.7067 166.616 49.9168 166.934Z" fill="white"/>
<path d="M43.014 172.787L41.3421 175.302C41.9343 175.477 42.4976 175.738 43.014 176.077C43.014 176.077 44.9457 177.104 48.7442 176.077C48.7442 176.077 51.9546 174.891 53.5546 174.661L53.9888 173.661L51.9546 170.919L43.014 172.787Z" fill="#F9B499"/>
<path d="M52.8674 186.332L34.0631 186.634C34.0631 186.634 22.678 187.566 22.9857 184.605C22.9165 184.151 22.9165 183.689 22.9857 183.235C23.1635 182.142 23.7823 180.757 26.0867 180.918C26.3611 180.937 26.6368 180.921 26.9072 180.87C30.2812 180.155 33.5736 179.096 36.7333 177.711C37.5338 177.364 38.2499 176.847 38.8326 176.196C39.424 175.542 40.3506 174.826 41.3421 175.292C41.3421 175.292 41.8891 175.367 43.014 176.066C43.014 176.066 45.3628 177.163 48.7407 176.066C48.7407 176.066 52.3238 174.757 53.5546 174.651C53.5546 174.651 54.1119 175.162 53.9888 177.392C53.8933 178.188 53.8442 178.989 53.8418 179.791C53.8375 180.452 53.8925 181.113 54.0059 181.765C54.0059 181.765 56.5496 185.722 52.8674 186.332Z" fill="#F4717F"/>
<path opacity="0.2" d="M52.8674 186.332L34.0631 186.634C34.0631 186.634 22.678 187.566 22.9857 184.605C22.9165 184.151 22.9165 183.689 22.9857 183.235C25.9189 184.232 28.9868 184.775 32.0835 184.845C32.0835 184.845 41.3694 185.722 46.3543 182.755C46.3543 182.755 50.4399 179.428 53.8418 179.798C53.8375 180.459 53.8925 181.12 54.0059 181.772C54.0059 181.772 56.5496 185.722 52.8674 186.332Z" fill="black"/>
<path d="M90.7905 133.802C90.9124 134.484 91.2463 135.108 91.7444 135.588C92.7668 136.546 93.9915 137.262 95.3275 137.681C95.3275 137.681 104.381 139.607 106.49 141.063C106.49 141.063 107.673 143.023 107.284 145.175C107.284 145.175 96.2814 140.967 92.9 140.457C92.696 140.426 92.4939 140.384 92.2949 140.33C91.0333 139.987 87.1015 138.802 86.2262 136.561L90.7905 133.802Z" fill="#F7A48B"/>
<path d="M117.407 101.253C117.407 101.253 114.805 102.737 114.604 109.076C114.604 109.076 112.662 110.303 114.398 111.132C114.398 111.132 113.123 118.242 119.91 117.728L124.501 116.913C124.501 116.913 126.389 108.627 126.389 108.473C126.389 108.319 124.857 104.169 124.857 104.169L117.407 101.253Z" fill="#F9B499"/>
<path d="M136.14 117.745C135.586 119.561 135.88 120.175 135.88 120.175C136.594 125.801 135.623 125.596 135.623 125.596C135.36 126.034 134.656 126.069 133.941 125.966C133.612 125.918 133.29 125.823 132.987 125.685C132.351 125.392 131.807 124.93 131.415 124.348C129.722 121.85 126.796 121.813 126.796 121.813C123.377 121.556 120.368 124.622 120.368 124.622C119 125.743 118.429 124.879 118.429 124.879C116.539 124.112 117.581 121.299 117.581 121.299C115.961 122.892 114.846 125.037 114.084 127.124C113.841 127.258 113.595 127.401 113.345 127.549C115.469 121.144 120.672 116.758 120.672 116.758C121.438 115.789 121.236 115.069 121.236 115.069C120.997 114.442 121.472 113.698 121.92 113.174C122.26 112.783 122.499 112.315 122.618 111.811C122.737 111.307 122.732 110.781 122.604 110.279C122.359 109.462 122.015 108.68 121.578 107.949C121.39 107.632 121.16 107.343 120.894 107.089C119.366 105.625 117.817 103.107 117.817 103.107C116.491 101.106 118.105 99.7487 118.751 99.317C118.874 99.233 119.004 99.1607 119.141 99.1011C120.004 98.7038 120.912 98.4127 121.845 98.2341C127.821 97.1342 130.574 102.346 130.574 102.346L132.358 105.876C133.787 108.435 133.278 109.518 133.278 109.518C133.227 112.294 135.114 113.445 135.114 113.445C135.628 114.02 135.991 114.714 136.17 115.465C136.349 116.216 136.339 117 136.14 117.745Z" fill="#2F2E41"/>
<path d="M123.766 111.499C125.434 111.499 126.785 110.144 126.785 108.473C126.785 106.802 125.434 105.447 123.766 105.447C122.099 105.447 120.747 106.802 120.747 108.473C120.747 110.144 122.099 111.499 123.766 111.499Z" fill="#E6E7E8"/>
<path opacity="0.2" d="M123.766 110.436C124.848 110.436 125.725 109.557 125.725 108.473C125.725 107.388 124.848 106.509 123.766 106.509C122.684 106.509 121.807 107.388 121.807 108.473C121.807 109.557 122.684 110.436 123.766 110.436Z" fill="black"/>
<path d="M125.096 105.756C124.684 105.547 124.228 105.438 123.766 105.438C123.304 105.438 122.849 105.547 122.436 105.756C121.797 103.357 119.701 99.9543 119.137 99.0908C120 98.6935 120.908 98.4024 121.842 98.2239C122.977 99.6562 125.096 105.756 125.096 105.756Z" fill="#E6E7E8"/>
<path d="M125.739 165.505L111.817 160.605L107.013 146.453C107.317 145.571 107.429 144.633 107.341 143.704C107.254 142.774 106.97 141.874 106.507 141.063C104.685 138.843 105.236 135.872 105.574 134.645C105.675 134.284 105.825 133.938 106.019 133.617C107.366 131.417 110.556 129.2 113.362 127.552C113.615 127.405 113.858 127.261 114.104 127.124C116.498 125.753 118.446 124.893 118.446 124.893C118.755 125.063 119.109 125.13 119.458 125.084C119.807 125.038 120.132 124.881 120.385 124.636C120.385 124.636 123.394 121.569 126.816 121.826C126.816 121.826 129.739 121.864 131.435 124.362C131.827 124.944 132.371 125.407 133.008 125.698C133.938 140.714 125.739 165.505 125.739 165.505Z" fill="#F4717F"/>
<path d="M110.59 141.625L118.429 124.879C118.429 124.879 119.004 125.746 120.368 124.623C120.368 124.623 124.888 119.531 129.787 122.772L125.725 143.013L110.59 141.625Z" fill="#F4717F"/>
<path opacity="0.2" d="M110.59 141.625L118.429 124.879C118.429 124.879 119.004 125.746 120.368 124.623C120.368 124.623 124.888 119.531 129.787 122.772L125.725 143.013L110.59 141.625Z" fill="black"/>
<path d="M111.065 141.67L108.562 145.696C108.562 145.696 97.3925 140.978 92.688 140.423C92.688 140.423 87.1493 139.052 86.2262 136.54L72.1401 126.332C72.1401 126.332 72.5093 132.13 74.7864 134.597C74.7864 134.597 73.5555 138.236 80.8755 142.242C80.8755 142.242 86.9681 147.362 93.2453 150.877C93.2453 150.877 105.242 158.954 109.547 160.311C109.547 160.311 113.916 162.346 117.301 156.795L125.36 143.013L111.065 141.67Z" fill="#F9B499"/>
<path d="M112.993 141.852L123.995 145.347L125.356 143.013L112.993 141.852Z" fill="#F7A48B"/>
<path d="M110.091 148.965C109.768 148.455 109.479 147.924 109.226 147.375C108.959 146.832 108.73 146.271 108.542 145.696C108.865 146.206 109.154 146.737 109.407 147.286C109.673 147.829 109.902 148.39 110.091 148.965Z" fill="#F7A48B"/>
<path d="M69.6579 123.567L83.2038 138.445L92.5649 132.716L91.8264 132.233L75.8907 121.796L69.9041 122.447L69.6579 123.567Z" fill="#F4717F"/>
<path d="M70.2152 121.415L83.5799 135.831L87.4331 133.436V135.156L83.2722 137.681L69.781 122.848L70.2152 121.415Z" fill="#D1D3D4"/>
<path d="M76.1369 120.908L70.2152 121.415L83.5799 135.831L87.4331 133.436L76.1369 120.908Z" fill="#E6E7E8"/>
<path d="M87.6485 133.354L91.8265 130.835V132.233L87.6485 135.06V133.354Z" fill="#D1D3D4"/>
<path d="M76.4856 120.908L80.4413 118.749L91.8265 130.835L87.6485 133.354L76.4856 120.908Z" fill="#E6E7E8"/>
<path d="M87.6485 135.06L87.4331 135.156V133.436L76.1368 120.908H76.4856L87.6485 133.354V135.06Z" fill="#2F2E41"/>
<path d="M82.1372 124.67L78.1233 120.127L79.4772 119.322L83.4227 123.896L82.25 123.526L82.1372 124.67Z" fill="#F4717F"/>
<path d="M74.4786 129.769C74.4786 129.769 74.212 126.144 75.5795 126.63C75.5795 126.63 77.6959 128.09 77.566 133.35" fill="#F9B499"/>
<path d="M82.5064 140.337C82.3559 140.029 82.2055 139.72 82.0482 139.419C81.8909 139.117 81.7405 138.809 81.5764 138.511C81.2516 137.907 80.9165 137.315 80.5507 136.742C80.1967 136.163 79.8025 135.608 79.3712 135.084C79.2656 134.95 79.1514 134.823 79.0293 134.704C78.9096 134.584 78.8002 134.45 78.6703 134.344C78.5404 134.238 78.4173 134.114 78.2874 134.001C78.1574 133.888 78.0036 133.813 77.8634 133.713C78.4848 134.015 79.0375 134.442 79.4874 134.967C79.7212 135.222 79.9415 135.488 80.1473 135.766C80.3456 136.047 80.5473 136.328 80.7251 136.619C81.4489 137.788 82.0428 139.032 82.4961 140.33L82.5064 140.337Z" fill="#F7A48B"/>
<path d="M68.9058 160.674L92.6539 178.89L96.9241 182.155C96.9241 182.155 99.9226 184.554 103.335 185.548L94.8283 167.143L70.2118 153.92L68.9058 160.674Z" fill="#2F2E41"/>
<path opacity="0.2" d="M68.9058 160.674L92.6539 178.89L96.9241 182.155C96.9241 182.155 99.9226 184.554 103.335 185.548L94.8283 167.143L70.2118 153.92L68.9058 160.674Z" fill="black"/>
<path d="M151.306 89.1556L118.507 186.159L119.119 186.367L151.918 89.3634L151.306 89.1556Z" fill="#2F2E41"/>
<path d="M162.685 89.1525L129.886 186.159L130.498 186.367L163.297 89.3604L162.685 89.1525Z" fill="#2F2E41"/>
<path d="M176.189 93.4369H161.522V186.274H176.189V93.4369Z" fill="#F4717F"/>
<path opacity="0.2" d="M176.189 96.3632H161.522V100.187H176.189V96.3632Z" fill="black"/>
<path opacity="0.2" d="M176.189 180.137H161.522V183.961H176.189V180.137Z" fill="black"/>
<path d="M201.141 89.1057H176.613V186.634H201.141V89.1057Z" fill="#E6E7E8"/>
<path d="M181.198 102.531H176.613V146.71H181.198V102.531Z" fill="#D1D3D4"/>
<path d="M183.055 89.1057H182.839V108.017H183.055V89.1057Z" fill="#D1D3D4"/>
<path d="M185.147 89.1057H184.932V108.017H185.147V89.1057Z" fill="#D1D3D4"/>
<path d="M194.375 89.1057H194.159V123.619H194.375V89.1057Z" fill="#D1D3D4"/>
<path d="M185.147 165.499H184.932V186.634H185.147V165.499Z" fill="#D1D3D4"/>
<path d="M195.906 165.499H195.691V186.634H195.906V165.499Z" fill="#D1D3D4"/>
<path d="M187.147 170.08H186.932V186.634H187.147V170.08Z" fill="#D1D3D4"/>
<path d="M206.382 87.1628H202.146V186.271H206.382V87.1628Z" fill="#2F2E41"/>
<path d="M221.538 84.161H206.379V186.271H221.538V84.161Z" fill="#F4717F"/>
<path opacity="0.2" d="M221.538 87.7316H206.379V88.41H221.538V87.7316Z" fill="black"/>
<path opacity="0.2" d="M221.538 89.8903H206.379V90.5688H221.538V89.8903Z" fill="black"/>
<path opacity="0.2" d="M221.538 125.962H206.379V126.641H221.538V125.962Z" fill="black"/>
<path opacity="0.2" d="M221.538 179.798H206.379V180.476H221.538V179.798Z" fill="black"/>
<path opacity="0.2" d="M221.538 181.833H206.379V182.512H221.538V181.833Z" fill="black"/>
<path d="M241.56 92.6693H221.538V186.271H241.56V92.6693Z" fill="#2F2E41"/>
<path opacity="0.2" d="M241.56 99.1045H221.538V104.748H241.56V99.1045Z" fill="black"/>
<path opacity="0.2" d="M241.56 174.493H221.538V180.137H241.56V174.493Z" fill="black"/>
<path opacity="0.2" d="M241.56 171.166H221.538V173.311H241.56V171.166Z" fill="black"/>
<g opacity="0.2">
<path d="M227.368 111.44H226.937V166.177H227.368V111.44Z" fill="black"/>
</g>
<g opacity="0.2">
<path d="M231.46 111.44H231.029V166.177H231.46V111.44Z" fill="black"/>
</g>
<g opacity="0.2">
<path d="M236.014 111.44H235.583V166.177H236.014V111.44Z" fill="black"/>
</g>
<path d="M254.497 89.1057H242.48V186.271H254.497V89.1057Z" fill="#E6E7E8"/>
<path d="M247.348 89.1057H247.133V123.619H247.348V89.1057Z" fill="#D1D3D4"/>
<path d="M250.518 89.1057H250.302V107.393H250.518V89.1057Z" fill="#D1D3D4"/>
<path d="M247.252 164.035H247.037V186.271H247.252V164.035Z" fill="#D1D3D4"/>
<path d="M249.581 164.035H249.365V186.271H249.581V164.035Z" fill="#D1D3D4"/>
<path d="M255.42 147.502H259.222C259.842 147.502 260.437 147.749 260.876 148.188C261.314 148.628 261.561 149.224 261.561 149.846C261.561 150.467 261.314 151.064 260.876 151.503C260.437 151.943 259.842 152.19 259.222 152.19H255.42V147.502Z" fill="#040404"/>
<path d="M124.293 111.499C124.293 111.499 124.115 117.451 118.429 124.879" stroke="black" stroke-miterlimit="10"/>
<path d="M114.087 127.127C113.279 129.378 112.749 131.72 112.511 134.101C112.34 131.885 112.624 129.657 113.345 127.556C113.598 127.391 113.851 127.247 114.087 127.127Z" fill="#2F2E41"/>
<path d="M63.1995 169.813L72.1401 158.618C72.1401 158.618 84.4142 167.818 94.3805 177.756C95.1361 178.517 95.8516 179.318 96.5242 180.154C98.5448 182.652 104.709 189.009 112.997 185.709C112.997 185.709 122.549 181.874 123.729 164.786L111.817 160.605C111.817 160.605 110.484 161.291 105.837 158.618C105.837 158.618 96.9481 153.135 93.2419 150.877C93.2419 150.877 83.6688 145.007 80.8721 142.242C80.8721 142.242 77.6583 140.299 76.0138 138.445C76.0138 138.445 68.0613 134.786 64.6389 139.929L45.7218 168.552L60.9464 169.364C60.9464 169.364 62.7482 169.001 63.1995 169.813Z" fill="#2F2E41"/>
<path d="M61.2917 169.312L45.7218 168.552C45.7218 168.552 44.0704 168.308 43.6054 169.789L42.3644 172.122C42.3644 172.122 41.7421 173.287 43.6054 173.366L60.0609 173.832C60.0609 173.832 61.3772 174.144 61.9208 173.054L63.1106 171.56C63.2606 171.381 63.3668 171.169 63.4208 170.941C63.4748 170.713 63.4751 170.476 63.4217 170.248C63.2816 169.696 62.7824 169.141 61.2917 169.312Z" fill="#F4717F"/>
<path opacity="0.3" d="M61.2917 169.312L45.7218 168.552C45.7218 168.552 44.0704 168.308 43.6054 169.789L42.3644 172.122C42.3644 172.122 41.7421 173.287 43.6054 173.366L60.0609 173.832C60.0609 173.832 61.3772 174.144 61.9208 173.054L63.1106 171.56C63.2606 171.381 63.3668 171.169 63.4208 170.941C63.4748 170.713 63.4751 170.476 63.4217 170.248C63.2816 169.696 62.7824 169.141 61.2917 169.312Z" fill="white"/>
<path d="M176.613 88.1017H176.61C176.057 88.1017 175.608 88.5512 175.608 89.1057V186.562C175.608 187.116 176.057 187.566 176.61 187.566H176.613C177.167 187.566 177.615 187.116 177.615 186.562V89.1057C177.615 88.5512 177.167 88.1017 176.613 88.1017Z" fill="#F4717F"/>
<path opacity="0.3" d="M176.613 88.1017H176.61C176.057 88.1017 175.608 88.5512 175.608 89.1057V186.562C175.608 187.116 176.057 187.566 176.61 187.566H176.613C177.167 187.566 177.615 187.116 177.615 186.562V89.1057C177.615 88.5512 177.167 88.1017 176.613 88.1017Z" fill="white"/>
<path d="M201.144 88.1017H201.141C200.588 88.1017 200.139 88.5512 200.139 89.1057V186.562C200.139 187.116 200.588 187.566 201.141 187.566H201.144C201.698 187.566 202.146 187.116 202.146 186.562V89.1057C202.146 88.5512 201.698 88.1017 201.144 88.1017Z" fill="#F4717F"/>
<path opacity="0.3" d="M201.144 88.1017H201.141C200.588 88.1017 200.139 88.5512 200.139 89.1057V186.562C200.139 187.116 200.588 187.566 201.141 187.566H201.144C201.698 187.566 202.146 187.116 202.146 186.562V89.1057C202.146 88.5512 201.698 88.1017 201.144 88.1017Z" fill="white"/>
<path d="M261.551 149.842C261.551 149.842 282.064 146.512 282.981 120.158C283.215 112.571 281.758 105.027 278.714 98.0765C272.395 83.4792 256.313 57.8789 223.733 67.9977C223.733 67.9977 205.114 71.3078 189.787 83.4175C188.041 84.8074 186.41 86.3348 184.908 87.9851C181.516 91.6722 174.511 99.3444 172.541 101.911C172.541 101.911 158.124 119.671 140.369 111.947C140.369 111.947 133.391 108.271 133.531 102.206C133.546 101 133.85 99.8154 134.417 98.7523C134.985 97.6893 135.8 96.7788 136.793 96.0979C137.786 95.417 138.928 94.9857 140.122 94.8404C141.316 94.6951 142.528 94.8402 143.654 95.2633C146.974 96.5071 150.957 100.15 154.776 109.038C154.776 109.038 162.148 123.636 159.354 139.84C159.354 139.84 157.423 155.089 143.969 162.723C137.955 166.15 130.779 166.996 124.235 164.758C121.134 163.7 117.947 161.894 115.687 158.834" stroke="black" stroke-miterlimit="10"/>
<path d="M242.483 87.7316H242.48C241.972 87.7316 241.56 88.1443 241.56 88.6533V186.644C241.56 187.153 241.972 187.566 242.48 187.566H242.483C242.991 187.566 243.403 187.153 243.403 186.644V88.6533C243.403 88.1443 242.991 87.7316 242.483 87.7316Z" fill="#F4717F"/>
<path d="M254.501 87.9543H254.497C253.989 87.9543 253.578 88.367 253.578 88.8761V186.867C253.578 187.376 253.989 187.789 254.497 187.789H254.501C255.009 187.789 255.42 187.376 255.42 186.867V88.8761C255.42 88.367 255.009 87.9543 254.501 87.9543Z" fill="#F4717F"/>
<g opacity="0.3">
<path d="M242.483 87.7316H242.48C241.972 87.7316 241.56 88.1443 241.56 88.6533V186.644C241.56 187.153 241.972 187.566 242.48 187.566H242.483C242.991 187.566 243.403 187.153 243.403 186.644V88.6533C243.403 88.1443 242.991 87.7316 242.483 87.7316Z" fill="white"/>
<path d="M254.501 87.9543H254.497C253.989 87.9543 253.578 88.367 253.578 88.8761V186.867C253.578 187.376 253.989 187.789 254.497 187.789H254.501C255.009 187.789 255.42 187.376 255.42 186.867V88.8761C255.42 88.367 255.009 87.9543 254.501 87.9543Z" fill="white"/>
</g>
<path d="M142.653 174.593L140.229 187.621H141.825L144.191 174.593H142.653Z" fill="#2F2E41"/>
<path d="M159.242 174.857L161.669 187.881H160.072L157.706 174.857H159.242Z" fill="#2F2E41"/>
<path d="M150.52 168.771C150.52 168.771 149.928 163.196 149.101 160.825C148.338 158.81 147.877 156.694 147.733 154.544L146.964 139.545L151.118 148.372C151.118 148.372 153.426 153.409 153.07 161.236C153.07 161.236 152.728 167.044 151.532 168.774L150.52 168.771Z" fill="#F4717F"/>
<path d="M168.866 154.489C167.095 156.202 158.783 164.042 151.891 168.051C152.324 166.789 152.618 165.482 152.766 164.155L156.137 161.106C156.137 161.106 159.771 156.97 164.924 155.743C165.138 155.693 165.348 155.629 165.553 155.551L168.763 154.324C168.785 154.317 168.808 154.317 168.829 154.324C168.85 154.332 168.868 154.346 168.88 154.365C168.892 154.385 168.897 154.407 168.895 154.43C168.892 154.452 168.882 154.473 168.866 154.489Z" fill="#F4717F"/>
<path opacity="0.2" d="M168.866 154.489C167.095 156.202 158.783 164.042 151.891 168.051C152.324 166.789 152.618 165.482 152.766 164.155L156.137 161.106C156.137 161.106 159.771 156.97 164.924 155.743C165.138 155.693 165.348 155.629 165.553 155.551L168.763 154.324C168.785 154.317 168.808 154.317 168.829 154.324C168.85 154.332 168.868 154.346 168.88 154.365C168.892 154.385 168.897 154.407 168.895 154.43C168.892 154.452 168.882 154.473 168.866 154.489Z" fill="#231F20"/>
<path d="M150.52 168.771H149.217C149.217 168.771 146.52 164.416 144.157 162.051C143.643 161.548 143.166 161.009 142.728 160.437C142.55 160.208 142.348 159.944 142.133 159.653C140.845 157.945 139.656 156.165 138.571 154.321L132.775 144.346L140.229 150.086C144.113 153.528 147.081 157.885 148.865 162.764C149.672 164.687 150.229 166.706 150.52 168.771Z" fill="#F4717F"/>
<path d="M149.217 168.771H148.745L146.516 167.188C146.181 166.947 145.828 166.731 145.46 166.544C141.357 164.488 134.201 157.676 132.3 155.836C132.275 155.809 132.26 155.775 132.256 155.739C132.252 155.703 132.26 155.666 132.278 155.635C132.297 155.604 132.325 155.579 132.358 155.565C132.392 155.551 132.429 155.549 132.464 155.558C136.663 156.853 142.133 159.653 142.133 159.653C142.348 159.944 142.55 160.208 142.728 160.437C143.166 161.009 143.643 161.548 144.157 162.051C146.52 164.416 149.217 168.771 149.217 168.771Z" fill="#F4717F"/>
<path opacity="0.2" d="M149.217 168.771H148.745L146.516 167.188C146.181 166.947 145.828 166.731 145.46 166.544C141.357 164.488 134.201 157.676 132.3 155.836C132.275 155.809 132.26 155.775 132.256 155.739C132.252 155.703 132.26 155.666 132.278 155.635C132.297 155.604 132.325 155.579 132.358 155.565C132.392 155.551 132.429 155.549 132.464 155.558C136.663 156.853 142.133 159.653 142.133 159.653C142.348 159.944 142.55 160.208 142.728 160.437C143.166 161.009 143.643 161.548 144.157 162.051C146.52 164.416 149.217 168.771 149.217 168.771Z" fill="#231F20"/>
<path d="M157.556 181.987H144.485L142.136 168.768H159.095L157.556 181.987Z" fill="#2F2E41"/>
<path opacity="0.2" d="M157.556 181.987H144.485L142.136 168.768H159.095L157.556 181.987Z" fill="black"/>
<path d="M159.689 173.808H141.354V175.377H159.689V173.808Z" fill="#2F2E41"/>
<path d="M186.918 73.237C185.069 73.245 183.281 72.5699 181.897 71.3405C180.513 70.1111 179.629 68.4138 179.414 66.5726C179.2 64.7315 179.67 62.8758 180.734 61.3599C181.799 59.844 183.383 58.7744 185.185 58.3552C186.216 58.1153 187.286 58.0963 188.325 58.2993C189.364 58.5024 190.349 58.923 191.214 59.5336C192.08 60.1443 192.807 60.9312 193.349 61.8429C193.89 62.7546 194.234 63.7706 194.356 64.8244C194.479 65.8783 194.379 66.9462 194.061 67.9584C193.744 68.9706 193.217 69.9042 192.515 70.6983C191.813 71.4924 190.951 72.1289 189.987 72.5664C189.022 73.0039 187.977 73.2324 186.918 73.237ZM185.267 58.691C183.886 59.0218 182.634 59.7555 181.669 60.7993C180.704 61.8431 180.069 63.1502 179.846 64.5554C179.622 65.9605 179.819 67.4007 180.411 68.6937C181.004 69.9868 181.966 71.0747 183.175 71.8199C184.385 72.5652 185.788 72.9343 187.206 72.8806C188.625 72.8269 189.996 72.3529 191.146 71.5183C192.296 70.6838 193.174 69.5263 193.667 68.1922C194.161 66.858 194.249 65.4071 193.92 64.0228C193.702 63.1031 193.304 62.2355 192.751 61.4697C192.198 60.7039 191.499 60.0549 190.696 59.5597C189.892 59.0646 188.999 58.733 188.067 58.5839C187.136 58.4349 186.184 58.4713 185.267 58.691Z" fill="#2F2E41"/>
<path d="M183.988 70.715C183.958 70.716 183.928 70.7077 183.903 70.691C183.876 70.6766 183.854 70.6553 183.839 70.6293C183.824 70.6033 183.817 70.5737 183.817 70.5437V60.8532C183.817 60.8232 183.824 60.7936 183.839 60.7676C183.854 60.7416 183.876 60.7203 183.903 60.7059C183.929 60.6908 183.958 60.6829 183.988 60.6829C184.018 60.6829 184.047 60.6908 184.073 60.7059L192.446 65.5511C192.473 65.5656 192.495 65.5869 192.51 65.6128C192.526 65.6387 192.534 65.6683 192.534 65.6985C192.534 65.7286 192.526 65.7582 192.51 65.7841C192.495 65.81 192.473 65.8313 192.446 65.8458L184.073 70.691C184.048 70.7069 184.018 70.7152 183.988 70.715ZM184.159 61.1513V70.2456L192.023 65.6985L184.159 61.1513Z" fill="#2F2E41"/>
<path d="M263.462 138.956C262.183 138.958 260.95 138.483 260.002 137.624C259.053 136.765 258.458 135.583 258.331 134.308C258.204 133.033 258.555 131.756 259.315 130.726C260.075 129.696 261.191 128.987 262.444 128.735C263.698 128.484 265 128.709 266.097 129.367C267.194 130.024 268.008 131.068 268.38 132.293C268.752 133.519 268.656 134.84 268.11 135.999C267.565 137.157 266.608 138.071 265.428 138.562C264.805 138.822 264.137 138.956 263.462 138.956ZM263.462 128.988C262.831 128.989 262.206 129.114 261.622 129.355C261.04 129.596 260.511 129.951 260.066 130.397C259.62 130.844 259.268 131.375 259.027 131.959C258.669 132.835 258.578 133.798 258.765 134.726C258.952 135.655 259.409 136.507 260.078 137.175C260.747 137.843 261.599 138.298 262.525 138.483C263.452 138.667 264.413 138.572 265.286 138.21C266.159 137.849 266.906 137.236 267.432 136.449C267.958 135.663 268.241 134.738 268.243 133.791C268.246 132.844 267.969 131.918 267.447 131.128C266.926 130.339 266.182 129.722 265.311 129.355C264.725 129.112 264.096 128.987 263.462 128.988Z" fill="#2F2E41"/>
<path d="M261.472 137.246C261.442 137.247 261.413 137.24 261.386 137.226C261.36 137.21 261.338 137.188 261.323 137.162C261.308 137.135 261.3 137.105 261.301 137.075V130.523C261.301 130.493 261.309 130.464 261.324 130.438C261.339 130.412 261.361 130.39 261.387 130.376C261.413 130.361 261.442 130.353 261.472 130.353C261.502 130.353 261.531 130.361 261.557 130.376L267.219 133.638C267.245 133.653 267.267 133.675 267.283 133.701C267.298 133.727 267.306 133.757 267.306 133.787C267.306 133.817 267.298 133.847 267.283 133.873C267.267 133.899 267.245 133.921 267.219 133.936L261.55 137.226C261.526 137.238 261.499 137.245 261.472 137.246ZM261.643 130.821V136.78L266.792 133.799L261.643 130.821Z" fill="#2F2E41"/>
<path d="M50.416 130.684H46.2175C46.1722 130.684 46.1287 130.666 46.0966 130.634C46.0646 130.602 46.0466 130.558 46.0466 130.513V116.731C46.0466 116.686 46.0646 116.642 46.0966 116.61C46.1287 116.578 46.1722 116.56 46.2175 116.56H50.416C50.4613 116.56 50.5048 116.578 50.5369 116.61C50.5689 116.642 50.587 116.686 50.587 116.731V130.513C50.5861 130.558 50.5678 130.601 50.5359 130.633C50.504 130.665 50.4611 130.683 50.416 130.684ZM46.3885 130.342H50.2587V116.902H46.3885V130.342Z" fill="#2F2E41"/>
<path d="M57.7599 130.684H53.5615C53.5161 130.684 53.4726 130.666 53.4406 130.634C53.4085 130.602 53.3905 130.558 53.3905 130.513V116.731C53.3905 116.686 53.4085 116.642 53.4406 116.61C53.4726 116.578 53.5161 116.56 53.5615 116.56H57.7599C57.8053 116.56 57.8488 116.578 57.8808 116.61C57.9129 116.642 57.9309 116.686 57.9309 116.731V130.513C57.93 130.558 57.9117 130.601 57.8798 130.633C57.848 130.665 57.805 130.683 57.7599 130.684ZM53.7324 130.342H57.589V116.902H53.7324V130.342Z" fill="#2F2E41"/>
<path d="M66.5774 95.1982H57.0043C56.959 95.1982 56.9155 95.1801 56.8834 95.148C56.8514 95.1159 56.8334 95.0723 56.8334 95.0268V85.4323C56.8342 85.3872 56.8525 85.3441 56.8844 85.3121C56.9163 85.2802 56.9593 85.2619 57.0043 85.261H66.5774C66.6228 85.261 66.6662 85.279 66.6983 85.3112C66.7304 85.3433 66.7484 85.3869 66.7484 85.4323V95.0268C66.7484 95.0723 66.7304 95.1159 66.6983 95.148C66.6662 95.1801 66.6228 95.1982 66.5774 95.1982ZM57.1719 94.8555H66.403V85.6037H57.1719V94.8555Z" fill="#2F2E41"/>
<path d="M168.24 76.5403H162.428C162.383 76.5403 162.339 76.5222 162.307 76.4901C162.275 76.458 162.257 76.4144 162.257 76.3689V70.5437C162.257 70.4982 162.275 70.4547 162.307 70.4225C162.339 70.3904 162.383 70.3724 162.428 70.3724H168.24C168.286 70.3724 168.329 70.3904 168.361 70.4225C168.393 70.4547 168.411 70.4982 168.411 70.5437V76.3689C168.411 76.4144 168.393 76.458 168.361 76.4901C168.329 76.5222 168.286 76.5403 168.24 76.5403ZM162.599 76.1976H168.069V70.715H162.599V76.1976Z" fill="#2F2E41"/>
<path d="M271.339 118.938H265.527C265.481 118.938 265.438 118.92 265.406 118.888C265.374 118.855 265.356 118.812 265.356 118.766V112.941C265.356 112.896 265.374 112.852 265.406 112.82C265.438 112.788 265.481 112.77 265.527 112.77H271.339C271.384 112.77 271.428 112.788 271.46 112.82C271.492 112.852 271.51 112.896 271.51 112.941V118.766C271.51 118.812 271.492 118.855 271.46 118.888C271.428 118.92 271.384 118.938 271.339 118.938ZM265.698 118.595H271.168V113.113H265.698V118.595Z" fill="#2F2E41"/>
<path opacity="0.7" d="M94.1616 109.751C100.599 109.751 105.817 104.521 105.817 98.0697C105.817 91.6183 100.599 86.3883 94.1616 86.3883C87.7246 86.3883 82.5063 91.6183 82.5063 98.0697C82.5063 104.521 87.7246 109.751 94.1616 109.751Z" fill="white"/>
<path d="M91.8436 92.6762V103.611L97.5806 100.407V95.8801L91.8436 92.6762Z" fill="#2F2E41"/>
<path d="M100.791 95.9589H97.9225V100.29H100.791V95.9589Z" fill="#2F2E41"/>
<path d="M87.2006 102.456C87.267 102.456 87.3319 102.436 87.3874 102.399C87.4429 102.363 87.4866 102.311 87.5131 102.25C87.5395 102.189 87.5477 102.121 87.5365 102.055C87.5254 101.99 87.4953 101.929 87.4502 101.88C86.384 100.739 85.7942 99.2323 85.8018 97.6691C85.8095 96.106 86.414 94.605 87.4912 93.4746C87.5549 93.4104 87.5906 93.3235 87.5906 93.233C87.5906 93.1425 87.5549 93.0556 87.4912 92.9914C87.4594 92.9593 87.4216 92.9338 87.3799 92.9164C87.3383 92.899 87.2936 92.8901 87.2485 92.8901C87.2033 92.8901 87.1586 92.899 87.117 92.9164C87.0753 92.9338 87.0375 92.9593 87.0057 92.9914C85.8085 94.2491 85.1369 95.9183 85.1287 97.6565C85.1204 99.3947 85.7761 101.07 86.9613 102.339C86.9914 102.374 87.028 102.402 87.0692 102.422C87.1103 102.442 87.155 102.453 87.2006 102.456Z" fill="#2F2E41"/>
<path d="M88.5203 101.527C88.5655 101.527 88.6103 101.518 88.652 101.5C88.6936 101.482 88.7314 101.457 88.763 101.424C88.8267 101.36 88.8625 101.273 88.8625 101.183C88.8625 101.092 88.8267 101.005 88.763 100.941C87.9055 100.104 87.4143 98.9597 87.397 97.7598C87.3797 96.56 87.8377 95.4022 88.6707 94.5403C88.7357 94.4717 88.8007 94.41 88.869 94.3449C88.936 94.284 88.9761 94.1989 88.9806 94.1083C88.9851 94.0178 88.9536 93.9291 88.893 93.8618C88.8628 93.8281 88.8262 93.8006 88.7854 93.7812C88.7446 93.7617 88.7004 93.7505 88.6552 93.7483C88.6101 93.746 88.5649 93.7528 88.5224 93.7682C88.4799 93.7835 88.4408 93.8072 88.4075 93.8378C88.3288 93.9098 88.2536 93.9851 88.1784 94.0605C87.2192 95.0533 86.6921 96.3868 86.7126 97.7685C86.7331 99.1503 87.2996 100.467 88.2878 101.431C88.3503 101.492 88.4335 101.526 88.5203 101.527Z" fill="#2F2E41"/>
<path d="M89.8435 100.304C89.8903 100.304 89.9367 100.294 89.9796 100.275C90.0226 100.256 90.0612 100.229 90.0931 100.194C90.1541 100.127 90.1862 100.039 90.1823 99.9483C90.1785 99.8578 90.139 99.7725 90.0725 99.711C89.8079 99.4672 89.5938 99.1736 89.4425 98.8468C89.2912 98.52 89.2057 98.1666 89.1907 97.8066C89.1758 97.4467 89.2318 97.0874 89.3555 96.7491C89.4793 96.4109 89.6683 96.1005 89.9118 95.8355C89.9973 95.7464 90.0862 95.6608 90.1819 95.5785C90.2514 95.521 90.2953 95.4383 90.3043 95.3485C90.3133 95.2587 90.2865 95.169 90.2298 95.0988C90.2014 95.0638 90.1663 95.0349 90.1266 95.0135C90.087 94.9922 90.0435 94.9789 89.9987 94.9745C89.9539 94.97 89.9087 94.9745 89.8656 94.9876C89.8226 95.0007 89.7825 95.0222 89.7477 95.0508C89.6272 95.151 89.513 95.2585 89.4058 95.3729C89.1019 95.7041 88.866 96.0921 88.7116 96.5146C88.5572 96.9372 88.4874 97.3861 88.5062 97.8357C88.5249 98.2853 88.6318 98.7268 88.8208 99.135C89.0098 99.5432 89.2771 99.9101 89.6076 100.215C89.672 100.273 89.7564 100.305 89.8435 100.304Z" fill="#2F2E41"/>
</svg>
