<svg width="50" height="50" viewBox="0 0 50 50" fill="none" xmlns="http://www.w3.org/2000/svg">
<rect width="50" height="50" rx="8" fill="#F4717F"/>
<path d="M34.1583 16.1605C34.352 16.354 34.5057 16.5837 34.6105 16.8366C34.7154 17.0895 34.7694 17.3606 34.7694 17.6344C34.7694 17.9082 34.7154 18.1793 34.6105 18.4322C34.5057 18.6851 34.352 18.9149 34.1583 19.1084L27.9458 25.3188L33.5208 30.8917C33.9118 31.2826 34.1314 31.8128 34.1314 32.3657C34.1314 32.9185 33.9118 33.4487 33.5208 33.8396C33.1299 34.2305 32.5997 34.4502 32.0469 34.4502C31.494 34.4502 30.9638 34.2305 30.5729 33.8396L25 28.2646L19.4271 33.8396C19.0362 34.2305 18.506 34.4502 17.9531 34.4502C17.4003 34.4502 16.8701 34.2305 16.4792 33.8396C16.0883 33.4487 15.8686 32.9185 15.8686 32.3657C15.8686 31.8128 16.0883 31.2826 16.4792 30.8917L22.0542 25.3188L15.8417 19.1084C15.6481 18.9147 15.4946 18.6848 15.3899 18.4317C15.2852 18.1787 15.2313 17.9075 15.2314 17.6337C15.2315 17.3599 15.2856 17.0887 15.3905 16.8358C15.4953 16.5828 15.649 16.353 15.8427 16.1594C16.0364 15.9659 16.2663 15.8123 16.5194 15.7076C16.7724 15.6029 17.0436 15.5491 17.3174 15.5492C17.5912 15.5493 17.8624 15.6033 18.1153 15.7082C18.3683 15.8131 18.5981 15.9668 18.7917 16.1605L25 22.375L31.2104 16.1625C31.4039 15.9688 31.6337 15.8152 31.8866 15.7103C32.1395 15.6055 32.4106 15.5515 32.6844 15.5515C32.9582 15.5515 33.2293 15.6055 33.4822 15.7103C33.7351 15.8152 33.9649 15.9688 34.1583 16.1625V16.1605Z" fill="white"/>
<path fill-rule="evenodd" clip-rule="evenodd" d="M8.33331 2.08337C6.67571 2.08337 5.086 2.74185 3.9139 3.91396C2.74179 5.08606 2.08331 6.67577 2.08331 8.33337V41.6667C2.08331 43.3243 2.74179 44.914 3.9139 46.0861C5.086 47.2582 6.67571 47.9167 8.33331 47.9167H41.6666C43.3243 47.9167 44.914 47.2582 46.0861 46.0861C47.2582 44.914 47.9166 43.3243 47.9166 41.6667V8.33337C47.9166 6.67577 47.2582 5.08606 46.0861 3.91396C44.914 2.74185 43.3243 2.08337 41.6666 2.08337H8.33331ZM41.6666 6.25004H8.33331C7.78078 6.25004 7.25087 6.46953 6.86017 6.86024C6.46947 7.25094 6.24998 7.78084 6.24998 8.33337V41.6667C6.24998 42.2192 6.46947 42.7492 6.86017 43.1399C7.25087 43.5306 7.78078 43.75 8.33331 43.75H41.6666C42.2192 43.75 42.7491 43.5306 43.1398 43.1399C43.5305 42.7492 43.75 42.2192 43.75 41.6667V8.33337C43.75 7.78084 43.5305 7.25094 43.1398 6.86024C42.7491 6.46953 42.2192 6.25004 41.6666 6.25004V6.25004Z" fill="white"/>
</svg>
