<svg width="57" height="58" viewBox="0 0 57 58" fill="none" xmlns="http://www.w3.org/2000/svg">
<path d="M28.1379 1.16C13.2895 1.16 1.25513 13.6242 1.25513 29C1.25476 32.6565 1.94985 36.2772 3.30071 39.6555C4.65157 43.0337 6.63172 46.1032 9.1281 48.6888C11.6245 51.2743 14.5882 53.3252 17.8499 54.7243C21.1116 56.1234 24.6075 56.8433 28.1379 56.8429C42.9807 56.8429 55.0179 44.3787 55.0179 29C55.0179 13.6242 42.9807 1.16 28.1379 1.16V1.16ZM30.6467 11.2114C33.2675 11.2114 34.0375 12.7861 34.0375 14.587C34.0375 16.8345 32.3015 18.9138 29.3363 18.9138C26.8555 18.9138 25.6739 17.6233 25.7467 15.486C25.7467 13.6851 27.1999 11.2114 30.6467 11.2114V11.2114ZM23.9323 45.675C22.1403 45.675 20.8327 44.5469 22.0843 39.6024L24.1367 30.8299C24.4923 29.4263 24.5511 28.8637 24.1367 28.8637C23.6019 28.8637 21.2751 29.8323 19.9031 30.7893L19.0099 29.2726C23.3639 25.5055 28.3703 23.2957 30.5123 23.2957C32.3043 23.2957 32.6011 25.4881 31.7079 28.8637L29.3559 38.0857C28.9387 39.7155 29.1179 40.2781 29.5351 40.2781C30.0727 40.2781 31.8311 39.6053 33.5615 38.193L34.5751 39.6024C30.3387 43.9872 25.7215 45.675 23.9323 45.675Z" fill="#F4717F"/>
</svg>
