<svg width="257" height="203" viewBox="0 0 257 203" fill="none" xmlns="http://www.w3.org/2000/svg">
<path d="M81 113V167.893C81 168.451 81.221 168.987 81.6144 169.382C82.0078 169.777 82.5416 169.999 83.0984 170H230.899C231.456 169.999 231.99 169.777 232.384 169.382C232.778 168.987 232.999 168.451 233 167.893V113H81Z" fill="#2F2E41"/>
<path d="M81.3485 99.6347V113.371H233.16V99.6347C233.16 99.596 233.16 99.5603 233.16 99.5247C233.134 98.9974 232.914 98.4986 232.541 98.1251C232.169 97.7515 231.671 97.5299 231.144 97.5033H83.3641C82.8391 97.5305 82.3428 97.7516 81.9711 98.1238C81.5994 98.496 81.3786 98.993 81.3514 99.5187C81.3485 99.5603 81.3485 99.5841 81.3485 99.6347Z" fill="#2F2E41"/>
<path opacity="0.2" d="M81.3485 99.6347V113.371H233.16V99.6347C233.16 99.596 233.16 99.5603 233.16 99.5247C233.134 98.9974 232.914 98.4986 232.541 98.1251C232.169 97.7515 231.671 97.5299 231.144 97.5033H83.3641C82.8391 97.5305 82.3428 97.7516 81.9711 98.1238C81.5994 98.496 81.3786 98.993 81.3514 99.5187C81.3485 99.5603 81.3485 99.5841 81.3485 99.6347Z" fill="white"/>
<path d="M213.506 110.024C210.899 110.024 208.786 107.908 208.786 105.298C208.786 102.687 210.899 100.571 213.506 100.571C216.112 100.571 218.226 102.687 218.226 105.298C218.226 107.908 216.112 110.024 213.506 110.024Z" fill="#2F2E41"/>
<path d="M214.358 109.991C211.751 109.991 209.638 107.875 209.638 105.265C209.638 102.654 211.751 100.538 214.358 100.538C216.964 100.538 219.078 102.654 219.078 105.265C219.078 107.875 216.964 109.991 214.358 109.991Z" fill="white"/>
<path d="M113.138 110.009C110.531 110.009 108.418 107.893 108.418 105.283C108.418 102.672 110.531 100.556 113.138 100.556C115.745 100.556 117.858 102.672 117.858 105.283C117.858 107.893 115.745 110.009 113.138 110.009Z" fill="#2F2E41"/>
<path d="M113.99 109.977C111.383 109.977 109.27 107.86 109.27 105.25C109.27 102.64 111.383 100.523 113.99 100.523C116.597 100.523 118.71 102.64 118.71 105.25C118.71 107.86 116.597 109.977 113.99 109.977Z" fill="white"/>
<path d="M98.0522 109.991C95.4455 109.991 93.3323 107.875 93.3323 105.265C93.3323 102.654 95.4455 100.538 98.0522 100.538C100.659 100.538 102.772 102.654 102.772 105.265C102.772 107.875 100.659 109.991 98.0522 109.991Z" fill="#2F2E41"/>
<path d="M98.9041 109.962C96.2974 109.962 94.1843 107.846 94.1843 105.235C94.1843 102.625 96.2974 100.509 98.9041 100.509C101.511 100.509 103.624 102.625 103.624 105.235C103.624 107.846 101.511 109.962 98.9041 109.962Z" fill="white"/>
<path d="M135.794 100.128H179.706C181.726 100.128 183.364 101.768 183.364 103.79V106.778C183.364 108.801 181.726 110.44 179.706 110.44H135.794C133.774 110.44 132.136 108.801 132.136 106.778V103.79C132.136 101.768 133.774 100.128 135.794 100.128Z" fill="#2F2E41"/>
<path opacity="0.2" d="M182.271 107.946H146.771C144.222 107.958 141.694 107.492 139.317 106.57C136.755 105.556 133.995 103.838 132.786 100.969C132.408 101.455 132.182 102.043 132.139 102.658V108.306C132.139 108.306 132.484 110.452 134.666 110.452L181.271 110.414C181.855 110.306 182.383 109.999 182.766 109.545C183.149 109.09 183.362 108.517 183.37 107.922L182.271 107.946Z" fill="black"/>
<path d="M141.508 113.229H171.855V170.173H141.508V113.229Z" fill="white"/>
<path d="M141.508 113.229H147.145V170.078H141.508V113.229Z" fill="#CCCCCC"/>
<path d="M141.508 151.466H171.855V151.671H141.508V151.466Z" fill="#3F3D56"/>
<path d="M141.508 153.814H171.855V154.019H141.508V153.814Z" fill="#3F3D56"/>
<path d="M141.508 156.16H171.855V156.365H141.508V156.16Z" fill="#3F3D56"/>
<path d="M141.508 158.502H171.855V158.707H141.508V158.502Z" fill="#3F3D56"/>
<path d="M141.508 161.053H171.855V161.258H141.508V161.053Z" fill="#3F3D56"/>
<path d="M141.508 163.401H171.855V163.606H141.508V163.401Z" fill="#3F3D56"/>
<path d="M141.508 165.747H171.855V165.952H141.508V165.747Z" fill="#3F3D56"/>
<path d="M141.508 168.092H171.855V168.297H141.508V168.092Z" fill="#3F3D56"/>
<path d="M141.508 129.7H171.855V149.504H141.508V129.7Z" fill="#3F3D56"/>
<path opacity="0.2" d="M200.605 164.685C188.635 164.685 178.932 154.968 178.932 142.982C178.932 130.996 188.635 121.279 200.605 121.279C212.574 121.279 222.278 130.996 222.278 142.982C222.278 154.968 212.574 164.685 200.605 164.685Z" fill="black"/>
<path d="M202.273 164.685C190.303 164.685 180.6 154.968 180.6 142.982C180.6 130.996 190.303 121.279 202.273 121.279C214.243 121.279 223.946 130.996 223.946 142.982C223.946 154.968 214.243 164.685 202.273 164.685Z" fill="#3F3D56"/>
<path opacity="0.2" d="M202.273 164.685C190.303 164.685 180.6 154.968 180.6 142.982C180.6 130.996 190.303 121.279 202.273 121.279C214.243 121.279 223.946 130.996 223.946 142.982C223.946 154.968 214.243 164.685 202.273 164.685Z" fill="white"/>
<path d="M202.273 163.015C191.225 163.015 182.268 154.046 182.268 142.982C182.268 131.918 191.225 122.949 202.273 122.949C213.321 122.949 222.278 131.918 222.278 142.982C222.278 154.046 213.321 163.015 202.273 163.015Z" fill="#595867"/>
<path d="M201.994 149.504C198.397 149.504 195.481 146.584 195.481 142.982C195.481 139.38 198.397 136.46 201.994 136.46C205.591 136.46 208.507 139.38 208.507 142.982C208.507 146.584 205.591 149.504 201.994 149.504Z" fill="#2F2E41"/>
<path d="M202.555 149.504C198.958 149.504 196.042 146.584 196.042 142.982C196.042 139.38 198.958 136.46 202.555 136.46C206.152 136.46 209.068 139.38 209.068 142.982C209.068 146.584 206.152 149.504 202.555 149.504Z" fill="white"/>
<path opacity="0.2" d="M110.06 164.685C98.0901 164.685 88.3868 154.968 88.3868 142.982C88.3868 130.996 98.0901 121.279 110.06 121.279C122.029 121.279 131.733 130.996 131.733 142.982C131.733 154.968 122.029 164.685 110.06 164.685Z" fill="black"/>
<path d="M111.728 164.685C99.7584 164.685 90.0551 154.968 90.0551 142.982C90.0551 130.996 99.7584 121.279 111.728 121.279C123.698 121.279 133.401 130.996 133.401 142.982C133.401 154.968 123.698 164.685 111.728 164.685Z" fill="#3F3D56"/>
<path opacity="0.2" d="M111.728 164.685C99.7584 164.685 90.0551 154.968 90.0551 142.982C90.0551 130.996 99.7584 121.279 111.728 121.279C123.698 121.279 133.401 130.996 133.401 142.982C133.401 154.968 123.698 164.685 111.728 164.685Z" fill="white"/>
<path d="M111.728 163.015C100.68 163.015 91.7234 154.046 91.7234 142.982C91.7234 131.918 100.68 122.949 111.728 122.949C122.776 122.949 131.733 131.918 131.733 142.982C131.733 154.046 122.776 163.015 111.728 163.015Z" fill="#595867"/>
<path d="M111.449 149.504C107.852 149.504 104.936 146.584 104.936 142.982C104.936 139.38 107.852 136.46 111.449 136.46C115.046 136.46 117.962 139.38 117.962 142.982C117.962 146.584 115.046 149.504 111.449 149.504Z" fill="#2F2E41"/>
<path d="M112.01 149.504C108.413 149.504 105.497 146.584 105.497 142.982C105.497 139.38 108.413 136.46 112.01 136.46C115.607 136.46 118.523 139.38 118.523 142.982C118.523 146.584 115.607 149.504 112.01 149.504Z" fill="white"/>
<path d="M163.709 143.648C161.534 143.648 159.77 141.882 159.77 139.703C159.77 137.525 161.534 135.758 163.709 135.758C165.885 135.758 167.648 137.525 167.648 139.703C167.648 141.882 165.885 143.648 163.709 143.648Z" fill="#2F2E41"/>
<path d="M164.419 143.624C162.243 143.624 160.48 141.858 160.48 139.679C160.48 137.501 162.243 135.735 164.419 135.735C166.594 135.735 168.358 137.501 168.358 139.679C168.358 141.858 166.594 143.624 164.419 143.624Z" fill="#3F3D56"/>
<path d="M145.714 120.815H168.489C168.926 120.815 169.281 121.17 169.281 121.609V121.781C169.281 122.219 168.926 122.575 168.489 122.575H145.714C145.277 122.575 144.922 122.219 144.922 121.781V121.609C144.922 121.17 145.277 120.815 145.714 120.815Z" fill="#3F3D56"/>
<path d="M185.56 152.352C185.56 152.352 191.049 152.899 195.045 150.654C196.977 149.753 198.702 148.458 200.108 146.853C201.514 145.249 202.572 143.368 203.214 141.332C203.216 141.251 203.238 141.172 203.278 141.101C203.317 141.031 203.373 140.971 203.441 140.926C203.508 140.881 203.585 140.854 203.666 140.845C203.746 140.837 203.827 140.848 203.903 140.877C203.903 140.877 204.369 140.937 204.223 141.493C204.223 141.493 207.628 147.379 201.813 153.49C200.691 154.649 199.756 155.974 199.04 157.42L199.002 157.498C198.553 158.448 198.207 159.445 197.972 160.47C197.63 161.93 196.464 164.822 192.658 163.529C192.658 163.529 186.923 159.899 184.483 159.317C184.483 159.335 185.566 156.956 185.56 152.352Z" fill="#F9B499"/>
<path d="M166.28 180.925L153.281 142.961C153.281 142.961 150.648 135.928 141.514 139.266C141.514 139.266 125.232 148.235 105.266 165.036L92.1894 177.224L141.526 159.109C141.526 159.109 144.334 164.581 149.781 170.788C149.781 170.788 155.84 177.174 157.333 180.955L158.651 183.333C158.651 183.333 163.822 182.86 166.28 180.925Z" fill="#2F2E41"/>
<path opacity="0.4" d="M166.28 180.925L153.281 142.961C153.281 142.961 150.648 135.928 141.514 139.266C141.514 139.266 125.232 148.235 105.266 165.036L92.1894 177.224L141.526 159.109C141.526 159.109 144.334 164.581 149.781 170.788C149.781 170.788 155.84 177.174 157.333 180.955L158.651 183.333C158.651 183.333 163.822 182.86 166.28 180.925Z" fill="#544E50"/>
<path d="M185.78 151.677C185.78 151.677 185.955 156.454 184.373 159.558C184.373 159.558 170.332 157.423 162.626 158.137C162.08 158.19 161.538 158.273 161.002 158.386C156.278 159.246 151.405 158.662 147.017 156.71C147.017 156.71 122.308 190.221 117.974 191.737L89.3991 189.156C89.3991 189.156 91.9876 177.563 95.8674 173.933C95.8674 173.933 100.994 173.089 113.759 162.182C113.759 162.182 139.442 137.343 148.623 139.376C149.563 139.573 150.514 139.717 151.47 139.807C154.528 140.137 160.874 141.237 168.869 144.902C169.982 145.411 171.11 145.883 172.25 146.332L185.78 151.677Z" fill="#2F2E41"/>
<path opacity="0.2" d="M185.78 151.677C185.78 151.677 185.955 156.454 184.373 159.558C184.373 159.558 170.332 157.423 162.626 158.137C162.08 158.19 161.538 158.273 161.002 158.386C156.278 159.246 151.405 158.662 147.017 156.71C147.017 156.71 122.308 190.221 117.974 191.737L89.3991 189.156C89.3991 189.156 91.9876 177.563 95.8674 173.933C95.8674 173.933 100.994 173.089 113.759 162.182C113.759 162.182 139.442 137.343 148.623 139.376C149.563 139.573 150.514 139.717 151.47 139.807C154.528 140.137 160.874 141.237 168.869 144.902C169.982 145.411 171.11 145.883 172.25 146.332L185.78 151.677Z" fill="#544E50"/>
<path d="M67.2125 145.203L64.4548 139.266L59.913 136.085L57.7074 138.609L57.1137 144.281V146.772L58.6306 148.163" fill="#F9B499"/>
<path d="M118.137 198.125C118.137 198.125 53.9553 201.823 35.4675 197.028C35.4675 197.028 24.9294 196.751 23.9705 182.224C23.9705 182.224 21.2336 155.36 40.6683 137.679C40.6683 137.679 48.1964 131.237 53.3972 138.502C53.3972 138.502 56.4102 140.146 60.5216 153.716C60.5216 153.716 63.5316 170.984 80.5025 182.087C80.5025 182.087 85.5756 185.503 90.5716 187.715C93.0725 188.848 95.8991 189.035 98.5271 188.241C99.1511 188.057 99.7495 187.795 100.308 187.462C101.043 186.988 101.824 186.59 102.639 186.273C106.299 184.92 114.809 182.887 118.838 191.258C118.82 191.27 123.436 197.848 118.137 198.125Z" fill="#2F2E41"/>
<g opacity="0.2">
<path d="M87.2499 192.691C90.8487 192.681 94.4011 191.877 97.6544 190.336C105.889 186.472 111.182 186.951 114.174 188.03C117.41 189.198 118.722 191.3 118.734 191.323L118.909 191.216C118.894 191.196 117.555 189.037 114.257 187.842C111.229 186.743 105.874 186.252 97.5683 190.152C90.8625 193.3 83.3196 193.259 76.8987 190.045C68.587 185.883 62.1839 177.709 57.8381 165.723C56.3215 161.48 55.2209 157.099 54.5519 152.643C53.6436 146.757 51.2005 136.632 45.0528 134.938L44.9964 135.137C51.0462 136.799 53.4566 146.838 54.356 152.676C55.0295 157.143 56.134 161.534 57.654 165.788C62.0207 177.822 68.4682 186.044 76.8186 190.221C80.0567 191.845 83.6283 192.69 87.2499 192.691Z" fill="white"/>
</g>
<g opacity="0.2">
<path d="M83.7738 195.143C88.0601 192.629 92.5411 190.464 97.1735 188.669L97.0993 188.476C92.4564 190.278 87.9646 192.449 83.6669 194.968L83.7738 195.143Z" fill="white"/>
</g>
<g opacity="0.2">
<path d="M81.8591 183.092L81.9659 182.917C81.868 182.857 71.8909 176.784 60.1713 177.245V177.45C71.8464 176.989 81.7641 183.03 81.8591 183.092Z" fill="white"/>
</g>
<g opacity="0.2">
<path d="M69.056 171.701L69.2044 171.558C69.1094 171.457 59.3847 161.49 46.2817 156.612L46.2105 156.805C59.2689 161.665 68.961 171.6 69.056 171.701Z" fill="white"/>
</g>
<path d="M105.266 165.036C105.266 165.036 109.125 152.955 95.6655 147.914C95.6655 147.914 97.1112 129.896 75.8123 131.713C73.3025 131.93 70.8476 132.572 68.5513 133.609L63.3416 135.952C63.3416 135.952 62.8756 141.005 66.037 144.275L92.0351 172.185H97.7731L105.266 165.036Z" fill="#2F2E41"/>
<path d="M56.4589 130.681C54.8976 124.046 57.0949 117.85 61.3667 116.842C65.6385 115.834 70.3672 120.395 71.9285 127.03C73.4898 133.665 71.2925 139.861 67.0207 140.869C62.7489 141.877 58.0202 137.316 56.4589 130.681Z" fill="#F9B499"/>
<path d="M72.17 128.205C72.17 128.205 74.8832 124.807 73.4345 119.67C73.0859 118.385 72.4133 117.211 71.4814 116.26C70.5494 115.31 69.3892 114.615 68.112 114.242C66.6891 113.847 65.1799 113.894 63.784 114.376C63.784 114.376 55.6147 111.121 53.1568 117.367L48.1489 124.578C48.1489 124.578 43.2361 127.694 45.6049 135.238C45.6049 135.238 50.1675 133.722 53.3972 138.508C55.2223 140.615 56.6686 143.023 57.6719 145.625C57.6719 145.625 58.0756 142.527 58.3368 140.767C58.3368 140.767 59.5984 138.767 59.6548 137.465C59.6548 137.465 71.0301 130.925 67.6549 119.061C67.6549 119.055 71.1013 121.95 72.17 128.205Z" fill="#544E50"/>
<path d="M91.2751 157.295L100.935 146.297C100.935 146.297 97.8622 142.162 98.6519 140.755L99.2456 139.914C99.5538 139.468 99.9655 139.104 100.445 138.852C100.925 138.601 101.459 138.469 102 138.469L106.649 131.038C106.747 130.881 106.901 130.766 107.079 130.716C107.258 130.666 107.448 130.684 107.614 130.767C107.782 130.853 107.913 130.999 107.978 131.176C108.044 131.354 108.04 131.55 107.967 131.725L105.426 137.765C105.426 137.765 109.555 141.106 109.027 143.392C109.027 143.392 107.542 147.176 105.426 148.318L93.6559 170.782L97.7851 172.182C97.7851 172.182 92.0915 175.75 90.1501 187.515C90.1501 187.515 86.0684 185.488 84.5604 184.59C84.5604 184.59 87.2469 183.678 86.015 180.598C86.015 180.598 90.1441 180.949 88.8261 175.497C88.8261 175.497 91.3731 176.389 91.8125 174.011C91.8125 174.011 92.044 173.351 91.4265 172.165C91.3641 172.052 91.3291 171.927 91.3247 171.799C91.3202 171.67 91.3463 171.543 91.4009 171.427C91.4554 171.31 91.5368 171.209 91.6383 171.13C91.7398 171.052 91.8585 170.999 91.9846 170.976H92.0321C92.0321 170.976 93.9112 170.583 93.1601 169.317C93.0534 169.148 92.9826 168.959 92.9523 168.761L91.2751 157.295Z" fill="#F9B499"/>
<path d="M75.5837 148.413C75.5837 148.413 66.1053 143.36 64.1966 144.427C64.1966 144.427 59.7438 144.45 58.2922 147.165L60.5156 153.704C60.5156 153.704 61.7476 158.844 62.2819 159.546C62.2819 159.546 63.585 159.599 63.3179 157.783C63.3179 157.783 67.4738 158.868 68.4385 155.613C68.4385 155.613 71.9799 157.049 72.538 153.912C72.538 153.912 74.9662 154.587 74.2924 152.212L79.8553 155.378C79.8553 155.378 79.2705 153.14 75.5837 148.413Z" fill="#F4717F"/>
<path d="M93.0236 169.064C93.0236 169.064 94.0388 170.31 92.2607 170.904C92.2607 170.904 90.6399 170.978 91.6165 172.605C91.6165 172.605 92.5694 174.807 90.4291 175.595C89.8911 175.692 89.3379 175.66 88.8143 175.503C88.8143 175.503 89.6039 178.315 88.461 179.569C88.461 179.569 88.2443 180.461 86.0031 180.604C86.0031 180.604 87.3538 183.357 84.5486 184.596C84.5486 184.596 74.4052 179.709 66.9988 168.666C66.9988 168.666 63.7335 163.693 62.748 160.714C62.748 160.714 69.3143 165.657 82.1975 168.704C82.1975 168.704 89.9749 171.071 93.0236 169.064Z" fill="#F4717F"/>
<path d="M165.766 181.285C165.858 181.225 168.607 189.355 173.131 190.937C173.131 190.937 175.506 191.951 177.655 192.961C177.655 192.961 182.046 194.281 182.969 193.886C182.969 193.886 187.009 192.917 185.56 195.027C185.56 195.027 183.186 198.372 172.736 197.227C172.736 197.227 167.539 196.478 165.766 197.052C165.766 197.052 160.423 198.505 159.075 196.041C158.906 195.714 158.816 195.352 158.813 194.983C158.81 194.615 158.894 194.251 159.058 193.921C159.708 192.554 161.052 188.651 158.639 183.33C158.639 183.33 163.558 182.759 165.766 181.285Z" fill="#F9B499"/>
<path d="M64.4252 140.827L64.3183 139.893C64.3183 139.893 61.8812 138.835 60.3227 136.977L59.5984 137.39C59.5984 137.39 60.7502 139.884 64.4252 140.827Z" fill="#F9A88F"/>
<path d="M71.2853 136.876C71.4862 136.543 71.6373 136.183 71.7336 135.806C71.7336 135.806 68.6018 131.644 66.2656 130.711L65.9925 131.186C65.9925 131.186 69.1362 133.591 71.1993 136.612L71.2853 136.876Z" fill="#F9A88F"/>
<path d="M58.6306 137.39C55.4124 137.39 52.8035 134.778 52.8035 131.555C52.8035 128.332 55.4124 125.72 58.6306 125.72C61.8489 125.72 64.4578 128.332 64.4578 131.555C64.4578 134.778 61.8489 137.39 58.6306 137.39Z" fill="#2F2E41"/>
<path opacity="0.2" d="M58.6306 137.39C55.4124 137.39 52.8035 134.778 52.8035 131.555C52.8035 128.332 55.4124 125.72 58.6306 125.72C61.8489 125.72 64.4578 128.332 64.4578 131.555C64.4578 134.778 61.8489 137.39 58.6306 137.39Z" fill="#2F2E41"/>
<path opacity="0.2" d="M58.6307 136.085C56.1321 136.085 54.1067 134.057 54.1067 131.555C54.1067 129.053 56.1321 127.025 58.6307 127.025C61.1292 127.025 63.1546 129.053 63.1546 131.555C63.1546 134.057 61.1292 136.085 58.6307 136.085Z" fill="black"/>
<path d="M58.6307 125.72C58.6307 125.72 54.1542 118.342 52.4295 116.418C52.3289 116.305 52.1934 116.228 52.0444 116.201C51.8954 116.173 51.7416 116.197 51.6072 116.267C50.4525 116.861 47.3475 118.666 46.2966 120.859C46.2168 121.028 46.179 121.214 46.1862 121.401C46.1934 121.588 46.2456 121.77 46.3382 121.933C48.1034 124.986 50.3532 127.731 52.9995 130.06C52.9995 130.06 54.1067 126.014 58.6307 125.72Z" fill="#2F2E41"/>
<path opacity="0.2" d="M58.6307 125.72C58.6307 125.72 54.1542 118.342 52.4295 116.418C52.3289 116.305 52.1934 116.228 52.0444 116.201C51.8954 116.173 51.7416 116.197 51.6072 116.267C50.4525 116.861 47.3475 118.666 46.2966 120.859C46.2168 121.028 46.179 121.214 46.1862 121.401C46.1934 121.588 46.2456 121.77 46.3382 121.933C48.1034 124.986 50.3532 127.731 52.9995 130.06C52.9995 130.06 54.1067 126.014 58.6307 125.72Z" fill="#2F2E41"/>
<path d="M92.6287 169.168C91.7085 169.688 94.5494 168.612 94.9738 167.917C95.5347 166.974 95.7032 165.849 95.4429 164.783C94.5108 160.791 91.4562 157.081 91.4562 157.081L91.0673 157.524L93.8429 162.747C94.3096 163.61 94.5802 164.565 94.6354 165.544C94.6864 166.278 94.524 167.011 94.1679 167.654C93.8117 168.297 93.2771 168.823 92.6287 169.168Z" fill="#F9A88F"/>
<path d="M74.2924 152.224L79.8554 155.39C79.8554 155.39 79.2617 152.343 69.4924 140.791C69.4924 140.791 63.7216 141.463 59.7706 136.876C59.7609 136.867 59.754 136.855 59.7509 136.842C59.7477 136.828 59.7484 136.815 59.7528 136.802C59.8002 136.626 60.0823 136.05 61.6793 136.698C61.8289 136.761 61.9915 136.788 62.1536 136.776C62.3157 136.764 62.4726 136.714 62.6114 136.629C62.9409 136.412 63.1784 135.999 62.5787 135.235L56.6269 132.334C56.4972 132.27 56.3967 132.158 56.346 132.022C56.2953 131.887 56.2981 131.736 56.3538 131.603C56.4127 131.469 56.521 131.363 56.6561 131.308C56.7912 131.252 56.9425 131.251 57.0781 131.305L62.7955 133.547C62.8409 133.564 62.8895 133.572 62.9382 133.569C62.9868 133.567 63.0343 133.554 63.0777 133.532C63.1211 133.51 63.1594 133.479 63.19 133.441C63.2206 133.403 63.243 133.359 63.2556 133.312C63.2751 133.242 63.2715 133.167 63.2453 133.099C63.2191 133.031 63.1717 132.973 63.1101 132.934L56.8763 128.859C56.8763 128.859 59.5984 127.67 62.4986 128.63C66.0771 130.481 69.1673 133.154 71.5169 136.43C71.5169 136.43 85.7656 145.544 94.4247 163.253C94.4247 163.253 97.3516 170.643 87.8673 169.822C87.8673 169.822 72.9744 167.804 62.7361 160.72L62.27 159.564C62.27 159.564 63.6326 159.564 63.306 157.801C63.306 157.801 67.4886 158.856 68.4267 155.631C68.4267 155.631 71.882 157.096 72.5262 153.93C72.538 153.924 74.9366 154.688 74.2924 152.224Z" fill="#F9B499"/>
</svg>
