<svg width="29" height="29" viewBox="0 0 29 29" fill="none" xmlns="http://www.w3.org/2000/svg">
<rect width="29" height="29" rx="4" fill="#F4717F"/>
<path d="M24.5445 20.956L20.9021 17.3135L18.1004 16.156C19.0333 14.8294 19.5331 13.2468 19.5312 11.625C19.5312 7.26547 15.9845 3.71875 11.625 3.71875C7.26547 3.71875 3.71875 7.26547 3.71875 11.625C3.71875 15.9845 7.26547 19.5312 11.625 19.5312C13.2609 19.5331 14.8566 19.0247 16.1899 18.0768L17.3444 20.871L20.9867 24.5136C21.2203 24.7472 21.4976 24.9325 21.8028 25.0589C22.1081 25.1854 22.4352 25.2504 22.7655 25.2505C23.0959 25.2505 23.423 25.1854 23.7283 25.059C24.0335 24.9326 24.3108 24.7473 24.5444 24.5137C24.778 24.2801 24.9633 24.0028 25.0898 23.6976C25.2162 23.3924 25.2813 23.0652 25.2813 22.7349C25.2813 22.4045 25.2162 22.0774 25.0898 21.7722C24.9634 21.4669 24.7781 21.1896 24.5445 20.956ZM5.15625 11.625C5.15625 8.0582 8.0582 5.15625 11.625 5.15625C15.1918 5.15625 18.0938 8.0582 18.0938 11.625C18.0938 15.1918 15.1918 18.0937 11.625 18.0937C8.0582 18.0937 5.15625 15.1918 5.15625 11.625ZM23.528 23.4971C23.3256 23.699 23.0515 23.8124 22.7656 23.8124C22.4798 23.8124 22.2056 23.699 22.0033 23.4971L18.5635 20.0574L17.4901 17.4593L20.0883 18.5327L23.5281 21.9724C23.7299 22.1748 23.8433 22.449 23.8433 22.7348C23.8433 23.0206 23.7299 23.2948 23.528 23.4971Z" fill="white"/>
</svg>
