<svg width="500" height="500" viewBox="0 0 500 500" fill="none" xmlns="http://www.w3.org/2000/svg">
<path d="M355.008 173.616C364.202 186.906 370.862 201.78 374.651 217.491L374.84 218.395C375.326 220.677 376.999 221.811 378.903 221.068C380.928 220.258 381.063 218.463 379.065 212.86C373.277 196.754 364.269 181.996 352.592 169.485L352.659 169.552C351.282 168.013 352.335 169.795 355.008 173.616ZM157.638 186.522C153.086 194.45 149.57 202.93 147.176 211.753L147 212.523C148.188 210.882 149.258 209.159 150.2 207.366L150.321 207.123C153.183 202.155 156.045 197.916 159.15 193.906L158.961 194.163C162.944 188.763 164.078 186.765 163.51 185.793C162.026 183.592 159.515 183.916 157.652 186.522H157.638ZM351.35 191.004C353.321 194.851 355.305 199.522 356.965 204.342L357.209 205.138C359.814 213.022 361.677 214.858 364.12 211.807C365.579 210.012 365.579 209.85 363.04 205.395C359.106 198.725 354.694 192.35 349.837 186.319L350.081 186.63C347.948 184.024 348.029 184.443 351.35 191.017V191.004ZM236.384 363.669C236.062 364.141 235.941 364.722 236.048 365.284C236.154 365.846 236.479 366.343 236.951 366.666H236.964C238.179 367.881 239.637 367.962 250.208 367.476C256.688 367.233 263.289 366.747 264.828 366.396C267.501 365.91 267.596 365.829 265.638 365.262C263.51 364.854 261.351 364.638 259.185 364.614H259.158C255.211 364.376 251.277 363.944 247.373 363.318C237.882 361.792 237.45 361.792 236.384 363.669ZM221.993 372.363C220.616 372.93 220.616 375.522 221.993 376.588C230.159 378.861 238.599 380.001 247.076 379.977C249.451 379.977 251.814 379.882 254.15 379.72L253.839 379.734C262.956 379.65 272.028 378.448 280.852 376.156L280.083 376.332H279.476C276.452 376.332 273.482 376.507 270.552 376.858L270.903 376.818C258.438 377.649 245.917 376.722 233.711 374.064L234.588 374.226C225.327 372.201 223.289 371.823 221.993 372.39V372.363ZM208.263 384.472C207.291 386.916 209.073 388.455 214.514 389.872C225.354 392.761 237.815 394.422 250.653 394.422C260.792 394.422 270.701 393.382 280.258 391.411L279.314 391.573C287.684 389.953 287.441 389.224 278.908 390.493C259.253 392.814 239.333 391.18 220.318 385.687L221.371 385.944C211.368 383.001 208.911 382.677 208.263 384.459V384.472Z" fill="black"/>
<path d="M236.204 65.6045C224.341 68.7546 213.806 75.6363 206.154 85.2335L206.059 85.355C198.485 95.0495 194.382 107.005 194.409 119.307C194.409 134.171 200.267 147.671 209.812 157.607L209.798 157.593C213.929 160.806 216.71 165.572 217.264 170.999V171.08C219.331 183.041 219.299 195.27 217.169 207.219L217.264 206.585C214.28 220.953 207.703 234.331 198.146 245.467C188.589 256.603 176.365 265.135 162.616 270.264L162.022 270.453L153.49 273.693L147.01 271.898C142.043 270.413 136.885 269.667 131.701 269.684C122.697 269.684 114.219 271.884 106.753 275.772L107.05 275.624C97.7422 280.204 89.9015 287.296 84.4143 296.099C78.9272 304.903 76.0125 315.066 76 325.439C75.9972 335.573 78.7701 345.515 84.0177 354.185C89.2654 362.855 96.7874 369.922 105.768 374.619L106.078 374.768C113.475 378.558 121.629 380.64 129.938 380.859C138.246 381.078 146.499 379.43 154.086 376.036C161.673 372.641 168.401 367.587 173.775 361.246C179.148 354.905 183.03 347.439 185.134 339.398L185.215 339.006C186.835 332.337 188.212 330.555 197.324 323.738C205.694 317.663 215.414 312.762 225.877 309.536L226.579 309.347C234.149 307.306 241.958 306.285 249.799 306.309C273.208 306.309 294.538 315.206 310.589 329.799L310.522 329.732C311.936 330.831 313.111 332.208 313.974 333.777C314.838 335.346 315.372 337.075 315.544 338.858V338.912C317.817 348.488 322.898 357.166 330.137 363.833L330.178 363.86C334.012 368.153 338.629 371.649 343.813 374.147L344.07 374.255C352.562 378.815 362.221 380.737 371.812 379.776L371.609 379.79C377.063 379.79 382.315 378.899 387.229 377.252L386.878 377.346C395.766 374.246 403.742 368.981 410.085 362.025C416.427 355.07 420.937 346.644 423.207 337.508L423.288 337.116C424.91 328.457 424.855 319.566 423.125 310.926L423.193 311.358C420.707 302.267 416.006 293.934 409.51 287.104C403.015 280.275 394.928 275.161 385.974 272.222L385.568 272.114C375.558 269.359 365.016 269.164 354.91 271.547L355.328 271.466C352.478 272.597 349.408 273.063 346.35 272.829C343.293 272.595 340.329 271.667 337.684 270.116L337.778 270.17C304.339 257.547 280.997 225.809 280.997 188.616C280.997 182.744 281.578 177.006 282.685 171.458L282.59 172.011L284.048 164.37L289.449 158.606C299.196 149.038 304.947 136.126 305.54 122.48V122.372C306.261 109.603 302.54 96.9781 295.01 86.6404C287.48 76.3027 276.605 68.8893 264.23 65.6585L263.839 65.5775C254.592 63.4427 244.977 63.4751 235.745 65.672L236.164 65.591L236.204 65.6045ZM259.964 99.9755C263.041 101.53 265.704 103.794 267.735 106.579C269.766 109.364 271.107 112.591 271.647 115.996C272.188 119.4 271.912 122.884 270.843 126.161C269.775 129.438 267.943 132.415 265.499 134.846C263.583 137.018 261.168 138.692 258.461 139.725C255.754 140.757 252.837 141.117 249.961 140.772L250.042 140.786C247.187 141.113 244.296 140.748 241.612 139.721C238.929 138.694 236.532 137.036 234.625 134.886L234.611 134.873C232.002 132.448 230.071 129.384 229.008 125.984C227.945 122.585 227.787 118.966 228.55 115.487L228.523 115.622C229.134 112.248 230.528 109.064 232.592 106.326C234.656 103.588 237.334 101.372 240.409 99.8558C243.485 98.3397 246.873 97.5656 250.302 97.5958C253.731 97.6259 257.105 98.4595 260.154 100.029L260.032 99.9755H259.964ZM264.514 226.74C271.453 230.129 276.934 235.623 280.201 242.387L280.282 242.589C282.419 246.814 283.21 251.591 282.55 256.278L282.563 256.157C283.208 261.179 282.279 266.278 279.904 270.75L279.971 270.615C277.677 275.403 274.27 279.573 270.036 282.776C265.802 285.979 260.863 288.124 255.631 289.029L255.428 289.056C248.347 290.155 241.099 288.953 234.752 285.626C228.405 282.3 223.292 277.024 220.167 270.575L220.085 270.372C217.759 265.973 216.885 260.949 217.588 256.022L217.574 256.143C216.953 251.509 217.728 246.794 219.802 242.603L219.734 242.738C221.657 238.62 224.378 234.925 227.741 231.868C231.104 228.811 235.041 226.453 239.323 224.931L239.566 224.864C243.41 223.502 247.515 223.035 251.568 223.5L251.446 223.487L252.35 223.473C256.846 223.473 261.072 224.675 264.703 226.767L264.581 226.7L264.514 226.74ZM137.695 303.663C143.675 305.513 148.495 309.617 151.249 314.963L151.303 315.084C153.472 318.333 154.308 322.292 153.639 326.141L153.652 326.046C153.535 330.209 152.201 334.246 149.817 337.66C147.432 341.073 144.101 343.714 140.233 345.257L140.085 345.311C136.968 346.408 133.66 346.853 130.365 346.619C127.069 346.384 123.857 345.475 120.928 343.947L121.063 344.015C117.412 341.948 114.44 338.865 112.508 335.141C110.577 331.416 109.768 327.211 110.182 323.036L110.169 323.13C110.442 318.09 112.653 313.35 116.338 309.9L116.352 309.887C118.97 306.916 122.382 304.754 126.187 303.656C129.992 302.559 134.031 302.57 137.83 303.69L137.682 303.65L137.695 303.663ZM376.591 304.473C381.964 306.836 386.284 310.778 389.038 315.719L389.105 315.854C390.131 318.486 390.725 321.537 390.725 324.723C390.725 328.368 389.956 331.824 388.552 334.943L388.62 334.781C386.904 338.356 384.213 341.374 380.857 343.488C377.502 345.602 373.618 346.725 369.652 346.728L369.085 346.715H369.112C366.325 346.809 363.547 346.348 360.94 345.359C358.332 344.37 355.947 342.874 353.922 340.956C351.898 339.038 350.274 336.738 349.146 334.188C348.018 331.637 347.407 328.888 347.35 326.1V326.073C346.703 322.194 347.589 318.215 349.82 314.976L349.78 315.03C352.074 310.154 356.153 306.344 361.175 304.387C366.196 302.43 371.777 302.476 376.766 304.514L376.632 304.46L376.591 304.473ZM144.297 146.091C130.767 161.546 120.667 179.693 114.664 199.335L114.394 200.361C111.465 211.013 111.235 213.942 113.989 205.761C118.296 194.097 123.034 184.188 128.529 174.779L128.029 175.697C133.416 167.232 139.14 159.875 145.498 153.111L145.417 153.192C147.612 151.108 149.568 148.785 151.249 146.267L151.344 146.118C151.083 145.366 150.663 144.679 150.11 144.105C149.557 143.532 148.887 143.085 148.144 142.797L148.104 142.784C146.618 143.675 145.363 144.768 144.324 146.064L144.297 146.091ZM355.977 151.707C368.988 167.549 378.28 186.108 383.165 206.018L383.368 206.963C386.135 218.843 386.608 219.923 388.579 219.923C391.738 219.923 392.076 217.317 389.794 209.595C383.49 187.766 372.078 167.751 356.503 151.208L356.57 151.275L351.171 145.578L355.977 151.707ZM149.521 162.44C141.455 173.032 135.172 184.87 130.918 197.486L130.662 198.35C127.165 209.001 126.274 214.118 129.366 206.072C135.117 191.411 142.866 178.802 152.424 167.799L152.288 167.961C156.352 163.25 157 161.711 155.285 159.996C153.571 158.282 152.451 158.849 149.521 162.426V162.44Z" fill="#2F2E41"/>
</svg>
